<svg xmlns="http://www.w3.org/2000/svg" xmlns:xlink="http://www.w3.org/1999/xlink" preserveAspectRatio="xMidYMid" width="19.468" height="33.438" viewBox="0 0 19.468 33.438">
  <defs>
    <style>
      .cls-1 {
        fill: #1c2b36;
        fill-rule: evenodd;
      }
    </style>
  </defs>
  <path d="M19.481,16.717 C19.481,16.449 19.347,16.148 19.146,15.947 L3.546,0.346 C3.345,0.145 3.044,0.011 2.776,0.011 C2.508,0.011 2.207,0.145 2.006,0.346 L0.332,2.020 C0.131,2.221 -0.003,2.522 -0.003,2.790 C-0.003,3.058 0.131,3.359 0.332,3.560 L13.489,16.717 L0.332,29.874 C0.131,30.074 -0.003,30.376 -0.003,30.644 C-0.003,30.945 0.131,31.213 0.332,31.414 L2.006,33.087 C2.207,33.288 2.508,33.422 2.776,33.422 C3.044,33.422 3.345,33.288 3.546,33.087 L19.146,17.487 C19.347,17.286 19.481,16.985 19.481,16.717 Z" class="cls-1"/>
</svg>
