<svg xmlns="http://www.w3.org/2000/svg" xmlns:xlink="http://www.w3.org/1999/xlink" preserveAspectRatio="xMidYMid" width="15.908" height="15.906" viewBox="0 0 15.908 15.906">
  <defs>
    <style>
      .cls-1 {
        fill: #314350;
        fill-rule: evenodd;
      }
    </style>
  </defs>
  <path d="M15.914,12.813 C15.914,12.478 15.780,12.143 15.538,11.902 L11.600,7.963 L15.538,4.024 C15.780,3.783 15.914,3.448 15.914,3.113 C15.914,2.778 15.780,2.443 15.538,2.202 L13.716,0.380 C13.475,0.139 13.140,0.005 12.805,0.005 C12.470,0.005 12.136,0.139 11.894,0.380 L7.956,4.319 L4.017,0.380 C3.776,0.139 3.441,0.005 3.106,0.005 C2.771,0.005 2.436,0.139 2.195,0.380 L0.373,2.202 C0.132,2.443 -0.002,2.778 -0.002,3.113 C-0.002,3.448 0.132,3.783 0.373,4.024 L4.312,7.963 L0.373,11.902 C0.132,12.143 -0.002,12.478 -0.002,12.813 C-0.002,13.148 0.132,13.483 0.373,13.724 L2.195,15.546 C2.436,15.787 2.771,15.921 3.106,15.921 C3.441,15.921 3.776,15.787 4.017,15.546 L7.956,11.607 L11.894,15.546 C12.136,15.787 12.470,15.921 12.805,15.921 C13.140,15.921 13.475,15.787 13.716,15.546 L15.538,13.724 C15.780,13.483 15.914,13.148 15.914,12.813 Z" class="cls-1"/>
</svg>
