<svg xmlns="http://www.w3.org/2000/svg" width="20.59" height="19"><path d="M4.676,6.173 L0.255,6.173 L0.255,18.992 L4.676,18.992 L4.676,6.173 ZM4.957,2.215 C4.944,0.960 4.006,0.003 2.492,0.003 C0.991,0.003 0.000,0.960 0.000,2.215 C0.000,3.444 0.951,4.427 2.438,4.427 L2.465,4.427 L2.465,4.427 C4.006,4.427 4.970,3.444 4.957,2.215 ZM20.578,11.645 C20.578,7.712 18.408,5.875 15.501,5.875 C13.116,5.875 12.071,7.156 11.495,8.036 L11.522,8.036 L11.522,6.173 L7.114,6.173 C7.114,6.173 7.168,7.376 7.114,18.992 L7.114,18.992 L11.522,18.992 L11.522,11.839 C11.522,11.451 11.562,11.075 11.669,10.791 C11.991,10.028 12.714,9.239 13.933,9.239 C15.527,9.239 16.170,10.416 16.170,12.136 L16.170,18.992 L20.578,18.992 L20.578,11.645 Z" fill="white" /></svg>