<svg xmlns="http://www.w3.org/2000/svg" width="23.219" height="19.625"><path d="M8.926,17.844 C8.926,16.854 8.131,16.059 7.141,16.059 C6.150,16.059 5.355,16.854 5.355,17.844 C5.355,18.834 6.150,19.629 7.141,19.629 C8.131,19.629 8.926,18.834 8.926,17.844 ZM21.422,17.844 C21.422,16.854 20.627,16.059 19.637,16.059 C18.647,16.059 17.852,16.854 17.852,17.844 C17.852,18.834 18.647,19.629 19.637,19.629 C20.627,19.629 21.422,18.834 21.422,17.844 ZM23.207,2.670 C23.207,2.182 22.803,1.777 22.314,1.777 L5.565,1.777 C5.425,1.108 5.411,-0.008 4.463,-0.008 L0.893,-0.008 C0.404,-0.008 0.000,0.397 0.000,0.885 C0.000,1.373 0.404,1.777 0.893,1.777 L3.738,1.777 L6.206,13.255 C6.011,13.660 5.355,14.734 5.355,15.166 C5.355,15.654 5.760,16.059 6.248,16.059 L20.529,16.059 C21.017,16.059 21.422,15.654 21.422,15.166 C21.422,14.678 21.017,14.274 20.529,14.274 L7.698,14.274 C7.838,13.995 8.033,13.702 8.033,13.381 C8.033,13.060 7.908,12.712 7.852,12.405 L22.412,10.703 C22.872,10.647 23.207,10.257 23.207,9.811 L23.207,2.670 Z" fill="cls-1"/></svg>
