<svg xmlns="http://www.w3.org/2000/svg" width="21.125" height="16.563"><path d="M21.127,1.956 C20.350,2.280 19.506,2.513 18.635,2.603 C19.532,2.086 20.216,1.271 20.537,0.301 C19.706,0.779 18.769,1.129 17.791,1.310 C17.000,0.495 15.875,-0.010 14.629,-0.010 C12.231,-0.010 10.302,1.866 10.302,4.168 C10.302,4.492 10.342,4.815 10.409,5.126 C6.818,4.945 3.616,3.289 1.486,0.754 C1.111,1.374 0.897,2.086 0.897,2.862 C0.897,4.311 1.660,5.591 2.826,6.342 C2.116,6.316 1.446,6.122 0.870,5.811 C0.870,5.824 0.870,5.850 0.870,5.863 C0.870,7.894 2.357,9.575 4.340,9.964 C3.978,10.054 3.590,10.106 3.201,10.106 C2.920,10.106 2.652,10.080 2.384,10.041 C2.933,11.697 4.527,12.900 6.430,12.939 C4.943,14.064 3.081,14.724 1.058,14.724 C0.696,14.724 0.361,14.711 0.013,14.672 C1.928,15.862 4.206,16.547 6.658,16.547 C14.616,16.547 18.970,10.183 18.970,4.660 C18.970,4.479 18.970,4.298 18.956,4.117 C19.800,3.522 20.537,2.784 21.127,1.956 Z" fill="white" /></svg>